<?xml version="1.0" encoding="UTF-8"?>
<svg id="Layer_1" xmlns="http://www.w3.org/2000/svg" version="1.1" viewBox="0 0 443.9 224.23">
  <!-- Generator: Adobe Illustrator 29.3.0, SVG Export Plug-In . SVG Version: 2.1.0 Build 146)  -->
  <defs>
    <style>
      .st0 {
        fill: #fff;
      }
    </style>
  </defs>
  <path class="st0" d="M155.75,61.01h14.31c3.48,0,6.19.84,8.13,2.53,1.93,1.68,2.9,3.97,2.9,6.87s-.97,5.15-2.92,6.84c-1.95,1.7-4.65,2.55-8.11,2.55h-7.4v12.76h-6.91v-31.54ZM169.18,74.52c3.6,0,5.4-1.36,5.4-4.08s-1.8-4.12-5.4-4.12h-6.51v8.2h6.51Z"/>
  <path class="st0" d="M188.78,91.49c-1.79-.94-3.16-2.3-4.12-4.08-.96-1.77-1.44-3.84-1.44-6.2s.48-4.43,1.44-6.2c.96-1.77,2.33-3.13,4.12-4.08,1.79-.94,3.88-1.42,6.27-1.42s4.43.47,6.2,1.42c1.77.95,3.14,2.3,4.1,4.08.96,1.77,1.44,3.84,1.44,6.2s-.48,4.43-1.44,6.2c-.96,1.77-2.33,3.13-4.1,4.08-1.77.95-3.84,1.42-6.2,1.42s-4.48-.47-6.27-1.42M198.84,86.17c.87-1.09,1.31-2.75,1.31-4.96s-.44-3.83-1.31-4.94c-.87-1.11-2.13-1.66-3.79-1.66s-2.97.55-3.85,1.66c-.89,1.11-1.33,2.75-1.33,4.94,0,4.4,1.73,6.6,5.18,6.6,1.65,0,2.92-.55,3.79-1.64"/>
  <rect class="st0" x="211.09" y="59.94" width="6.69" height="32.61"/>
  <path class="st0" d="M223.01,59.55h7.13v6.29h-7.13v-6.29ZM223.23,70.09h6.69v22.46h-6.69v-22.46Z"/>
  <path class="st0" d="M243.78,75.1v8.73c0,1.24.32,2.15.97,2.72.65.58,1.49.86,2.53.86.65,0,1.39-.1,2.21-.31v5.18c-1.06.41-2.35.62-3.85.62-2.78,0-4.9-.78-6.36-2.35-1.46-1.56-2.19-3.77-2.19-6.6v-8.86h-4.25v-5.01h4.25v-5.27l6.69-2.17v7.44h5.71v5.01h-5.71Z"/>
  <path class="st0" d="M273.07,81.88h-14.8c.12,2.1.66,3.63,1.64,4.59.98.96,2.42,1.44,4.34,1.44,1.15,0,2.3-.19,3.46-.58,1.15-.38,2.22-.94,3.19-1.68l1.77,4.52c-1.06.86-2.39,1.53-3.96,2.02-1.58.49-3.17.73-4.76.73-3.78,0-6.75-1.04-8.91-3.12-2.16-2.08-3.23-4.92-3.23-8.53,0-2.27.47-4.3,1.4-6.09.93-1.79,2.24-3.17,3.92-4.16,1.68-.99,3.59-1.48,5.72-1.48,3.16,0,5.66,1.03,7.49,3.08,1.83,2.05,2.75,4.82,2.75,8.31v.97ZM259.93,75.32c-.78.74-1.29,1.82-1.53,3.23h8.9c-.35-2.89-1.79-4.34-4.3-4.34-1.27,0-2.3.37-3.08,1.11M264.87,67.21h-4.12l4.39-9.13h6.56l-6.82,9.13Z"/>
  <path class="st0" d="M279.29,89.81c-2.08-2.07-3.12-4.89-3.12-8.46,0-2.33.5-4.39,1.51-6.18,1-1.79,2.41-3.17,4.23-4.16,1.82-.99,3.92-1.48,6.31-1.48,1.62,0,3.21.25,4.74.75,1.54.5,2.76,1.18,3.68,2.04l-1.77,4.65c-.89-.71-1.86-1.26-2.92-1.66-1.06-.4-2.1-.6-3.1-.6-1.83,0-3.26.55-4.28,1.66-1.02,1.11-1.53,2.72-1.53,4.85s.5,3.79,1.51,4.9c1,1.11,2.44,1.66,4.3,1.66,1,0,2.04-.2,3.1-.6,1.06-.4,2.04-.95,2.92-1.66l1.77,4.65c-.98.86-2.25,1.53-3.81,2.02-1.57.49-3.21.73-4.92.73-3.66,0-6.53-1.03-8.62-3.1"/>
  <path class="st0" d="M321.67,78.95v13.6h-6.69v-13.29c0-1.56-.29-2.71-.86-3.43-.58-.72-1.48-1.09-2.72-1.09-1.48,0-2.66.47-3.54,1.42-.88.95-1.33,2.21-1.33,3.81v12.58h-6.69v-16.04c0-2.39-.12-4.53-.35-6.42h6.29l.44,3.55c.8-1.33,1.84-2.35,3.12-3.06,1.29-.71,2.74-1.06,4.36-1.06,5.32,0,7.98,3.15,7.98,9.44"/>
  <path class="st0" d="M326.76,59.55h7.13v6.29h-7.13v-6.29ZM326.98,70.09h6.69v22.46h-6.69v-22.46Z"/>
  <path class="st0" d="M341.14,89.81c-2.08-2.07-3.12-4.89-3.12-8.46,0-2.33.5-4.39,1.51-6.18,1-1.79,2.41-3.17,4.23-4.16,1.82-.99,3.92-1.48,6.31-1.48,1.62,0,3.2.25,4.74.75,1.54.5,2.76,1.18,3.68,2.04l-1.77,4.65c-.89-.71-1.86-1.26-2.92-1.66-1.06-.4-2.1-.6-3.1-.6-1.83,0-3.26.55-4.27,1.66-1.02,1.11-1.53,2.72-1.53,4.85s.5,3.79,1.51,4.9c1,1.11,2.44,1.66,4.3,1.66,1,0,2.04-.2,3.1-.6,1.06-.4,2.04-.95,2.92-1.66l1.77,4.65c-.97.86-2.24,1.53-3.81,2.02-1.57.49-3.21.73-4.92.73-3.66,0-6.54-1.03-8.62-3.1"/>
  <path class="st0" d="M366.12,91.49c-1.79-.94-3.16-2.3-4.12-4.08-.96-1.77-1.44-3.84-1.44-6.2s.48-4.43,1.44-6.2c.96-1.77,2.33-3.13,4.12-4.08,1.79-.94,3.88-1.42,6.27-1.42s4.43.47,6.2,1.42c1.77.95,3.14,2.3,4.1,4.08.96,1.77,1.44,3.84,1.44,6.2s-.48,4.43-1.44,6.2c-.96,1.77-2.33,3.13-4.1,4.08-1.77.95-3.84,1.42-6.2,1.42s-4.48-.47-6.27-1.42M376.18,86.17c.87-1.09,1.31-2.75,1.31-4.96s-.44-3.83-1.31-4.94c-.87-1.11-2.13-1.66-3.79-1.66s-2.97.55-3.85,1.66c-.89,1.11-1.33,2.75-1.33,4.94,0,4.4,1.73,6.6,5.18,6.6,1.65,0,2.92-.55,3.79-1.64"/>
  <path class="st0" d="M179.23,101.29v32.61h-6.6v-3.32c-.68,1.15-1.64,2.05-2.88,2.7-1.24.65-2.64.97-4.21.97-1.92,0-3.63-.49-5.14-1.48-1.51-.99-2.68-2.38-3.52-4.16-.84-1.79-1.26-3.83-1.26-6.14s.42-4.33,1.26-6.09c.84-1.76,2.01-3.11,3.5-4.08,1.49-.96,3.21-1.44,5.16-1.44,1.51,0,2.88.32,4.12.95,1.24.64,2.2,1.51,2.88,2.64v-13.16h6.69ZM171.3,127.45c.89-1.14,1.33-2.77,1.33-4.89s-.45-3.71-1.35-4.85c-.9-1.14-2.16-1.7-3.79-1.7s-2.94.56-3.85,1.68c-.92,1.12-1.37,2.72-1.37,4.79s.46,3.77,1.37,4.94c.92,1.17,2.2,1.75,3.85,1.75s2.92-.57,3.81-1.71"/>
  <path class="st0" d="M204.79,123.22h-14.8c.12,2.1.66,3.63,1.64,4.59.98.96,2.42,1.44,4.34,1.44,1.15,0,2.3-.19,3.46-.58,1.15-.38,2.21-.95,3.19-1.68l1.77,4.52c-1.06.86-2.39,1.53-3.96,2.02-1.58.49-3.17.73-4.76.73-3.78,0-6.75-1.04-8.91-3.12-2.16-2.08-3.23-4.93-3.23-8.53,0-2.27.47-4.3,1.4-6.09.93-1.79,2.24-3.18,3.92-4.16,1.68-.99,3.59-1.48,5.72-1.48,3.16,0,5.66,1.03,7.49,3.08,1.83,2.05,2.75,4.82,2.75,8.31v.97ZM191.66,116.66c-.78.74-1.29,1.82-1.53,3.23h8.9c-.35-2.89-1.79-4.34-4.3-4.34-1.27,0-2.3.37-3.08,1.11"/>
  <polygon class="st0" points="229.16 133.9 229.16 107.98 219.28 107.98 219.28 102.35 246.04 102.35 246.04 107.98 236.16 107.98 236.16 133.9 229.16 133.9"/>
  <path class="st0" d="M250.14,132.83c-1.79-.94-3.16-2.3-4.12-4.08-.96-1.77-1.44-3.84-1.44-6.2s.48-4.43,1.44-6.2c.96-1.77,2.33-3.13,4.12-4.08,1.79-.94,3.88-1.42,6.27-1.42s4.43.47,6.2,1.42c1.77.95,3.14,2.3,4.1,4.08.96,1.77,1.44,3.84,1.44,6.2s-.48,4.43-1.44,6.2c-.96,1.77-2.33,3.13-4.1,4.08-1.77.95-3.84,1.42-6.2,1.42s-4.48-.47-6.27-1.42M260.19,127.52c.87-1.09,1.31-2.75,1.31-4.96s-.44-3.83-1.31-4.94c-.87-1.11-2.13-1.66-3.79-1.66s-2.97.55-3.85,1.66c-.89,1.11-1.33,2.75-1.33,4.94,0,4.4,1.73,6.6,5.18,6.6,1.65,0,2.92-.55,3.79-1.64"/>
  <path class="st0" d="M305.65,113.19c1.26,1.55,1.88,3.92,1.88,7.11v13.6h-6.69v-13.38c0-1.56-.25-2.69-.75-3.39-.5-.69-1.33-1.04-2.48-1.04-1.36,0-2.41.47-3.15,1.42-.74.95-1.11,2.28-1.11,3.99v12.41h-6.69v-13.38c0-1.53-.26-2.66-.77-3.37-.52-.71-1.34-1.06-2.46-1.06-1.36,0-2.42.47-3.17,1.42-.75.95-1.13,2.28-1.13,3.99v12.41h-6.69v-16.04c0-2.39-.12-4.53-.35-6.42h6.29l.4,3.37c.68-1.27,1.63-2.24,2.86-2.92,1.23-.68,2.64-1.02,4.23-1.02,3.34,0,5.55,1.39,6.64,4.17.74-1.27,1.77-2.28,3.08-3.04,1.31-.75,2.75-1.13,4.32-1.13,2.57,0,4.48.78,5.74,2.33"/>
  <path class="st0" d="M335.31,111.44v22.46h-6.6v-3.32c-.68,1.15-1.64,2.05-2.88,2.7-1.24.65-2.64.97-4.21.97-1.95,0-3.67-.47-5.16-1.42-1.49-.95-2.66-2.3-3.5-4.05-.84-1.76-1.26-3.79-1.26-6.09s.42-4.36,1.26-6.16c.84-1.8,2.02-3.2,3.52-4.19,1.51-.99,3.22-1.48,5.14-1.48,1.57,0,2.97.34,4.21,1.02,1.24.68,2.2,1.59,2.88,2.75v-3.19h6.6ZM327.38,127.47c.89-1.12,1.33-2.75,1.33-4.87s-.44-3.76-1.33-4.9c-.89-1.14-2.16-1.71-3.81-1.71s-2.94.59-3.85,1.77c-.92,1.18-1.37,2.82-1.37,4.92s.45,3.7,1.35,4.81c.9,1.11,2.19,1.66,3.88,1.66s2.92-.56,3.81-1.68"/>
  <path class="st0" d="M356.17,111.35l-.04,6.11c-1.09-.5-2.19-.75-3.28-.75-1.77,0-3.12.48-4.05,1.44-.93.96-1.4,2.3-1.4,4.01v11.74h-6.69v-16.04c0-2.39-.12-4.53-.35-6.43h6.29l.44,3.86c.56-1.42,1.44-2.5,2.64-3.26,1.2-.75,2.55-1.13,4.05-1.13.95,0,1.74.15,2.39.44"/>
  <path class="st0" d="M155.92,144.7h6.47c1.6,0,2.85.39,3.75,1.16.89.77,1.34,1.83,1.34,3.17s-.45,2.4-1.35,3.18c-.9.78-2.15,1.17-3.74,1.17h-3.77v6.22h-2.7v-14.91ZM162.08,151.3c.93,0,1.64-.19,2.12-.58.48-.38.72-.94.72-1.66s-.24-1.3-.71-1.68-1.19-.58-2.13-.58h-3.45v4.5h3.45Z"/>
  <path class="st0" d="M171.24,159.11c-.82-.45-1.44-1.08-1.88-1.91-.44-.83-.66-1.8-.66-2.92s.22-2.09.66-2.92c.44-.83,1.07-1.47,1.88-1.91.82-.45,1.76-.67,2.84-.67s2,.22,2.8.67c.81.45,1.43,1.08,1.87,1.91.44.83.66,1.8.66,2.92s-.22,2.09-.66,2.92c-.44.83-1.06,1.47-1.87,1.91-.81.45-1.74.67-2.8.67s-2.02-.22-2.84-.67M176.1,156.86c.47-.58.7-1.44.7-2.59s-.24-1.99-.71-2.58c-.48-.59-1.15-.89-2.01-.89s-1.56.3-2.03.89c-.47.59-.71,1.45-.71,2.58s.23,2.01.7,2.59c.47.58,1.14.87,2.02.87s1.57-.29,2.04-.87"/>
  <rect class="st0" x="181.67" y="144.2" width="2.6" height="15.41"/>
  <path class="st0" d="M201.93,151v4.73c0,1.24.58,1.86,1.74,1.86.32,0,.67-.06,1.05-.17v2.07c-.46.17-1.02.25-1.67.25-1.2,0-2.12-.34-2.76-1.01-.64-.67-.96-1.63-.96-2.89v-4.86h-2.03v-1.97h2.03v-2.58l2.62-.88v3.45h2.8v1.97h-2.8Z"/>
  <path class="st0" d="M215.79,154.46h-7.29c.06,1.13.34,1.96.85,2.5.51.54,1.27.81,2.27.81,1.16,0,2.23-.38,3.22-1.13l.75,1.8c-.5.41-1.12.73-1.85.97-.73.24-1.47.37-2.23.37-1.73,0-3.09-.49-4.08-1.46-.99-.98-1.49-2.32-1.49-4.02,0-1.07.22-2.03.65-2.87.43-.84,1.04-1.49,1.82-1.96.78-.47,1.67-.7,2.66-.7,1.45,0,2.6.47,3.44,1.41.84.94,1.27,2.24,1.27,3.88v.4ZM209.43,151.27c-.44.41-.72,1.01-.85,1.79h4.92c-.08-.79-.32-1.4-.72-1.8-.4-.41-.95-.61-1.64-.61s-1.27.21-1.71.62"/>
  <path class="st0" d="M219.93,159.11c-.81-.45-1.43-1.08-1.86-1.89-.43-.82-.65-1.78-.65-2.88s.23-2.07.68-2.91c.45-.84,1.1-1.49,1.93-1.96.83-.47,1.79-.7,2.88-.7.75,0,1.48.12,2.19.36.71.24,1.27.57,1.69.98l-.73,1.84c-.45-.36-.92-.64-1.42-.83-.5-.19-1-.28-1.49-.28-.95,0-1.69.3-2.22.89-.53.59-.8,1.45-.8,2.56s.26,1.97.78,2.55c.52.59,1.27.88,2.23.88.49,0,.98-.1,1.49-.29.5-.2.98-.47,1.42-.84l.73,1.84c-.45.42-1.03.75-1.74.98-.71.24-1.46.36-2.24.36-1.1,0-2.06-.22-2.87-.67"/>
  <path class="st0" d="M238.38,153.12v6.49h-2.62v-6.37c0-.84-.16-1.45-.48-1.83-.32-.38-.82-.58-1.49-.58-.79,0-1.44.26-1.93.76-.49.51-.73,1.18-.73,2.02v5.99h-2.6v-15.41h2.6v6.36c.36-.57.84-1.02,1.44-1.33s1.27-.47,2.01-.47c2.53,0,3.79,1.45,3.79,4.35"/>
  <path class="st0" d="M251,153.12v6.49h-2.62v-6.37c0-.84-.16-1.45-.48-1.83-.32-.38-.82-.58-1.49-.58-.8,0-1.44.26-1.93.76-.49.51-.73,1.18-.73,2.02v5.99h-2.6v-7.58c0-1.12-.06-2.11-.17-2.99h2.45l.19,1.74c.36-.64.85-1.14,1.48-1.49.62-.35,1.32-.52,2.1-.52,2.53,0,3.79,1.45,3.79,4.35"/>
  <path class="st0" d="M253.62,144.24h2.91v2.57h-2.91v-2.57ZM253.78,149.04h2.6v10.57h-2.6v-10.57Z"/>
  <path class="st0" d="M261.17,159.11c-.81-.45-1.43-1.08-1.86-1.89-.43-.82-.65-1.78-.65-2.88s.23-2.07.68-2.91c.45-.84,1.1-1.49,1.93-1.96.83-.47,1.79-.7,2.88-.7.75,0,1.48.12,2.19.36.7.24,1.27.57,1.69.98l-.73,1.84c-.45-.36-.92-.64-1.42-.83-.5-.19-1-.28-1.49-.28-.95,0-1.69.3-2.22.89-.53.59-.8,1.45-.8,2.56s.26,1.97.79,2.55c.52.59,1.27.88,2.23.88.49,0,.98-.1,1.49-.29.5-.2.98-.47,1.42-.84l.73,1.84c-.45.42-1.03.75-1.74.98-.71.24-1.46.36-2.24.36-1.1,0-2.06-.22-2.87-.67"/>
  <path class="st0" d="M277.2,158.22c-1.05-1.05-1.58-2.6-1.58-4.64v-8.88h2.66v9.02c0,1.28.3,2.26.9,2.92.6.66,1.49.99,2.68.99s2.04-.33,2.65-1c.61-.67.91-1.64.91-2.91v-9.02h2.66v8.88c0,2.02-.53,3.57-1.59,4.63-1.06,1.06-2.6,1.59-4.63,1.59s-3.6-.53-4.66-1.58"/>
  <path class="st0" d="M300.84,153.12v6.49h-2.62v-6.37c0-.84-.16-1.45-.48-1.83-.32-.38-.82-.58-1.49-.58-.8,0-1.44.26-1.93.76-.49.51-.73,1.18-.73,2.02v5.99h-2.6v-7.58c0-1.12-.06-2.11-.17-2.99h2.45l.19,1.74c.36-.64.85-1.14,1.48-1.49.62-.35,1.32-.52,2.1-.52,2.53,0,3.79,1.45,3.79,4.35"/>
  <path class="st0" d="M303.46,144.24h2.91v2.57h-2.91v-2.57ZM303.63,149.04h2.6v10.57h-2.6v-10.57Z"/>
  <polygon class="st0" points="316.5 149.06 319.1 149.06 314.47 159.61 312.19 159.61 307.63 149.06 310.37 149.06 313.4 156.64 316.5 149.06"/>
  <path class="st0" d="M329.52,154.46h-7.28c.05,1.13.34,1.96.85,2.5.51.54,1.27.81,2.27.81,1.16,0,2.23-.38,3.22-1.13l.75,1.8c-.5.41-1.12.73-1.85.97-.73.24-1.48.37-2.23.37-1.73,0-3.09-.49-4.08-1.46-.99-.98-1.49-2.32-1.49-4.02,0-1.07.22-2.03.65-2.87.43-.84,1.04-1.49,1.82-1.96.78-.47,1.67-.7,2.66-.7,1.45,0,2.6.47,3.44,1.41.84.94,1.27,2.24,1.27,3.88v.4ZM323.17,151.27c-.44.41-.72,1.01-.85,1.79h4.92c-.08-.79-.32-1.4-.72-1.8-.4-.41-.95-.61-1.64-.61s-1.27.21-1.71.62"/>
  <path class="st0" d="M338.48,148.95l-.02,2.39c-.45-.18-.91-.27-1.38-.27-.89,0-1.57.26-2.04.77-.47.52-.7,1.2-.7,2.05v5.72h-2.6v-7.58c0-1.12-.06-2.11-.17-2.99h2.45l.21,1.86c.26-.68.68-1.21,1.26-1.57.57-.36,1.22-.55,1.95-.55.41,0,.75.06,1.05.17"/>
  <path class="st0" d="M339.15,158.44l.73-1.84c1.13.84,2.42,1.26,3.87,1.26.63,0,1.11-.1,1.46-.31.34-.21.51-.5.51-.88,0-.32-.12-.58-.36-.77-.24-.19-.64-.35-1.21-.49l-1.76-.4c-1.93-.42-2.89-1.4-2.89-2.95,0-.64.18-1.21.54-1.71.36-.49.87-.88,1.53-1.16.66-.28,1.42-.42,2.28-.42.75,0,1.48.12,2.18.35.7.23,1.31.56,1.84.99l-.77,1.78c-1.06-.78-2.15-1.17-3.27-1.17-.6,0-1.07.11-1.4.34-.33.22-.5.53-.5.92,0,.31.1.55.3.73.2.18.55.34,1.04.46l1.8.4c1.05.24,1.81.6,2.29,1.1.48.5.72,1.14.72,1.94,0,.98-.39,1.75-1.17,2.32-.78.57-1.85.86-3.2.86-1.91,0-3.43-.45-4.56-1.34"/>
  <path class="st0" d="M350.16,144.24h2.91v2.57h-2.91v-2.57ZM350.33,149.04h2.6v10.57h-2.6v-10.57Z"/>
  <path class="st0" d="M359.12,151v4.73c0,1.24.58,1.86,1.74,1.86.32,0,.67-.06,1.05-.17v2.07c-.46.17-1.02.25-1.67.25-1.2,0-2.12-.34-2.76-1.01-.64-.67-.96-1.63-.96-2.89v-4.86h-2.03v-1.97h2.03v-2.58l2.62-.88v3.45h2.8v1.97h-2.8Z"/>
  <path class="st0" d="M373.92,149.04l-4.92,11.28c-.56,1.31-1.27,2.27-2.14,2.87-.87.6-1.93,1-3.2,1.19l-.59-2.01c.99-.22,1.73-.51,2.23-.85.5-.34.9-.85,1.2-1.52l.33-.77-4.4-10.2h2.74l3.03,7.6,3.1-7.6h2.6Z"/>
  <path class="st0" d="M197.02,149.04l-4.92,11.28c-.56,1.31-1.27,2.27-2.14,2.87-.87.6-1.93,1-3.2,1.19l-.59-2.01c.99-.22,1.73-.51,2.23-.85s.9-.85,1.2-1.52l.33-.77-4.4-10.2h2.74l3.03,7.6,3.1-7.6h2.6Z"/>
  <path class="st0" d="M61.31,60.51v36.97c0,20.42,16.55,36.97,36.97,36.97s36.97-16.55,36.97-36.97v-36.97H61.31ZM97.9,98.83c0,6.61-3.3,16.35-10.68,23.21l-.49.46-.6-.3c-1.44-.71-2.84-1.56-4.14-2.52l-1.29-.95,1.43-.71c6.67-3.32,11.25-9.55,12.43-16.82-7.27,1.18-13.5,5.76-16.82,12.43l-.71,1.43-.95-1.29c-.96-1.3-1.8-2.69-2.52-4.14l-.3-.6.46-.49c6.86-7.38,16.6-10.68,23.2-10.68h.98v.98ZM97.9,97.09h-.98c-6.61,0-16.35-3.3-23.2-10.68l-.46-.49.3-.6c.71-1.44,1.56-2.84,2.52-4.14l.95-1.29.71,1.43c3.32,6.67,9.55,11.25,16.82,12.43-1.18-7.27-5.76-13.5-12.43-16.82l-1.43-.71,1.29-.95c1.3-.95,2.69-1.8,4.14-2.52l.6-.3.49.46c7.38,6.85,10.68,16.59,10.68,23.2v.98ZM98.65,96.12c0-6.61,3.3-16.35,10.68-23.2l.49-.46.6.3c1.44.71,2.84,1.56,4.14,2.52l1.29.95-1.43.71c-6.67,3.32-11.25,9.55-12.43,16.82,7.27-1.18,13.5-5.76,16.82-12.43l.71-1.43.95,1.29c.96,1.3,1.8,2.69,2.52,4.14l.3.6-.46.49c-6.85,7.38-16.59,10.68-23.2,10.68h-.98v-.98ZM123,109.63c-.71,1.45-1.56,2.84-2.52,4.14l-.95,1.29-.71-1.43c-3.32-6.67-9.55-11.25-16.82-12.43,1.18,7.27,5.76,13.5,12.43,16.82l1.43.71-1.29.95c-1.29.95-2.69,1.8-4.14,2.52l-.6.3-.49-.46c-7.38-6.85-10.68-16.59-10.68-23.21v-.98h.98c6.61,0,16.35,3.3,23.21,10.68l.46.49-.3.6Z"/>
  <path class="st0" d="M71.07,143.88c-5.51,0-9.98,4.47-9.98,9.98s4.47,9.98,9.98,9.98,9.98-4.47,9.98-9.98-4.47-9.98-9.98-9.98"/>
</svg>