<?xml version="1.0" encoding="UTF-8"?><svg id="Layer_2" xmlns="http://www.w3.org/2000/svg" viewBox="0 0 142.09 64.93"><defs><style>.cls-1{fill:#fff;stroke-width:0px;}</style></defs><g id="Layer_1-2"><path class="cls-1" d="m3.68,3.63H0V1.23h10.35v2.4h-3.65v14.05h-3.02V3.63Z"/><path class="cls-1" d="m18.48,17.09c-.61.26-1.89.78-3.63.78-3.91,0-5.61-2.81-5.61-6.08,0-3.63,1.91-6.44,5-6.44,2.62,0,4.86,1.53,4.86,6.48v.57h-7.03c0,2.07.83,3.32,3.09,3.32,1.79,0,2.64-.54,3.18-.94l.14,2.31Zm-2.22-6.53c0-2.15-.71-3.23-2.03-3.23-1.53,0-2.17,1.63-2.17,3.23h4.2Z"/><path class="cls-1" d="m29.33,17.37c-.68.26-1.7.5-2.88.5-4.01,0-5.7-2.81-5.7-6.25s1.79-6.27,5.87-6.27c.92,0,2,.28,2.55.5l-.17,2.31c-.52-.26-1.25-.59-2.05-.59-2.22,0-3.18,1.49-3.18,4.08,0,2.26,1.08,4.01,3.32,4.01.71,0,1.67-.33,2.07-.59l.17,2.31Z"/><path class="cls-1" d="m30.53,0h2.92v7.1h.07c.52-.75,1.2-1.74,3.02-1.74,2.76,0,3.58,2.05,3.58,4.5v7.83h-2.92v-7.28c0-1.86-.47-2.64-1.67-2.64-1.53,0-2.07,1.3-2.07,2.85v7.07h-2.92V0Z"/><path class="cls-1" d="m42.18,7.54c0-.75-.02-1.46-.09-2h2.73c.02.61.09,1.25.09,1.86h.05c.42-.73,1.25-2.05,3.23-2.05,2.76,0,3.58,2.05,3.58,4.5v7.83h-2.92v-7.28c0-1.86-.47-2.64-1.67-2.64-1.53,0-2.07,1.3-2.07,2.85v7.07h-2.92V7.54Z"/><path class="cls-1" d="m1.12,31.8c0-3.14,2.04-4.92,3.09-5.4-.68-.89-1.1-1.94-1.1-3.09,0-1.94,1.57-3.77,4.14-3.77,1.57,0,2.78.84,2.78,2.46,0,1.15-.94,1.78-1.36,1.78-.1,0-.1-.21-.05-.47.16-1-.68-1.73-1.68-1.73-1.15,0-2.36,1-2.36,2.67,0,.58.21,1.31.58,1.89.26-.1.68-.31,1.31-.31s1.36.26,1.36.89c0,.73-.37,1.26-1.05,1.26-.52,0-1.36-.37-1.73-.63-.16-.26-.31-.31-.63-.1-.79.58-1.41,1.94-1.41,3.41,0,3.2,2.72,5.4,7.49,5.4s7.28-2.67,7.28-5.19c0-1.78-1.36-3.61-3.72-3.61-2.2,0-2.62,1.73-2.62,2.36,0,.89.63,1.57.84,1.57.16,0,.31-.16.26-.37-.05-.42.31-1.26,1.1-1.26,1,0,1.47.52,1.47,1.31,0,.68-.42,1.52-1.83,1.52-1.26,0-2.93-1.05-2.93-3.25,0-1.94,1.62-3.82,4.4-3.82,1.1,0,2.1.21,3.25.21,2.15,0,3.51-.84,3.51-2.3,0-.84-.79-1.73-1.47-1.73-.37,0-.37.31-.31.58.16.42-.21,1.31-1.15,1.31-.84,0-1.26-.58-1.26-1.15,0-1.05,1.05-1.68,2.04-1.68,2.1,0,3.25,1.36,3.25,2.78,0,2.62-1.62,3.98-4.09,4.35-.63.05-.63.31-.37.63.31.52.79,1.52.79,3.14,0,4.45-3.93,7.12-8.7,7.12-7.28,0-9.12-4.09-9.12-6.76Z"/><path class="cls-1" d="m31.86,34.02h-5.66l-1.18,3.96h-3.02l5.52-16.45h3.3l5.3,16.45h-3.11l-1.16-3.96Zm-.64-2.31l-2.07-7.69h-.05l-2.26,7.69h4.38Z"/><path class="cls-1" d="m37.1,27.85c0-.75-.02-1.46-.09-2h2.64c.02.73.09,1.49.09,2.22h.05c.35-.94,1.27-2.4,3.09-2.4.19,0,.33.05.5.07v2.73c-.26-.07-.52-.12-.83-.12-1.2,0-2.52.73-2.52,2.99v6.65h-2.92v-10.14Z"/><path class="cls-1" d="m45.8,23.34l2.92-.9v3.39h2.43v2.15h-2.43v6.29c0,1.3.47,1.67,1.32,1.67.52,0,.9-.14,1.11-.26v2.07c-.45.21-1.08.4-1.96.4-2.17,0-3.39-.99-3.39-3.54v-6.65h-1.93v-2.15h1.93v-2.5Z"/><path class="cls-1" d="m5.64,50.73c-.44.14-.9.22-1.33.22-2.32,0-3.29-1.76-3.29-3.74,0-2.29,1.33-3.72,3.24-3.72.52,0,1.05.09,1.38.26v.9c-.4-.25-.86-.37-1.37-.37-1.2,0-2.29.95-2.29,2.74,0,1.89.76,3.13,2.35,3.13.47,0,.93-.13,1.31-.35v.92Z"/><path class="cls-1" d="m6.52,43.56h3.41v.8h-2.48v2.33h2.37v.8h-2.37v2.6h2.62v.8h-3.54v-7.32Z"/><path class="cls-1" d="m10.94,43.56h1.14l2.76,6.04h.02v-6.04h.88v7.32h-1.14l-2.76-6h-.02v6h-.88v-7.32Z"/><path class="cls-1" d="m18.14,44.36h-1.68v-.8h4.28v.8h-1.68v6.52h-.92v-6.52Z"/><path class="cls-1" d="m21.46,43.56h1.88c.78,0,1.21.19,1.54.5.38.36.54.86.54,1.39,0,.78-.37,1.52-1.45,1.75v.02c.44.08.65.29.8.71l1.03,2.93h-1l-.84-2.47c-.21-.61-.47-.84-1.16-.84h-.42v3.31h-.92v-7.32Zm.92,3.25h.71c.99,0,1.36-.65,1.36-1.29,0-.82-.53-1.21-1.34-1.21h-.73v2.49Z"/><path class="cls-1" d="m28.94,43.49c1.62,0,2.66,1.39,2.66,3.66,0,2.53-1.02,3.81-2.75,3.81-1.62,0-2.66-1.39-2.66-3.66,0-2.53,1.02-3.8,2.75-3.8Zm-.08,6.71c.96,0,1.78-.8,1.78-3.05,0-1.48-.46-2.9-1.7-2.9-.96,0-1.78.8-1.78,3.05,0,1.48.46,2.9,1.7,2.9Z"/><path class="cls-1" d="m34.8,43.56h1.59c.98,0,1.53.23,1.95.52.65.45,1.35,1.37,1.35,3.02,0,2.12-1.01,3.77-3.75,3.77h-1.14v-7.32Zm.92,6.52h.56c1.61,0,2.45-1.1,2.45-2.98,0-1.53-.65-2.75-2.45-2.75h-.56v5.72Z"/><path class="cls-1" d="m40.62,43.56h3.41v.8h-2.48v2.33h2.37v.8h-2.37v2.6h2.62v.8h-3.54v-7.32Z"/><path class="cls-1" d="m48.52,44.36h-1.68v-.8h4.28v.8h-1.68v6.52h-.92v-6.52Z"/><path class="cls-1" d="m51.85,43.56h3.41v.8h-2.48v2.33h2.37v.8h-2.37v2.6h2.62v.8h-3.54v-7.32Z"/><path class="cls-1" d="m60.61,50.73c-.44.14-.9.22-1.33.22-2.32,0-3.29-1.76-3.29-3.74,0-2.29,1.33-3.72,3.24-3.72.52,0,1.05.09,1.38.26v.9c-.4-.25-.86-.37-1.37-.37-1.2,0-2.29.95-2.29,2.74,0,1.89.76,3.13,2.35,3.13.47,0,.93-.13,1.31-.35v.92Z"/><path class="cls-1" d="m61.49,43.56h1.14l2.76,6.04h.02v-6.04h.88v7.32h-1.14l-2.76-6h-.02v6h-.88v-7.32Z"/><path class="cls-1" d="m70.06,43.49c1.62,0,2.66,1.39,2.66,3.66,0,2.53-1.02,3.81-2.75,3.81-1.62,0-2.66-1.39-2.66-3.66,0-2.53,1.02-3.8,2.75-3.8Zm-.08,6.71c.96,0,1.78-.8,1.78-3.05,0-1.48-.46-2.9-1.7-2.9-.96,0-1.78.8-1.78,3.05,0,1.48.46,2.9,1.7,2.9Z"/><path class="cls-1" d="m73.74,43.56h.92v6.52h2.4v.8h-3.32v-7.32Z"/><path class="cls-1" d="m80,43.49c1.62,0,2.66,1.39,2.66,3.66,0,2.53-1.02,3.81-2.75,3.81-1.62,0-2.66-1.39-2.66-3.66,0-2.53,1.02-3.8,2.75-3.8Zm-.08,6.71c.96,0,1.78-.8,1.78-3.05,0-1.48-.46-2.9-1.7-2.9-.96,0-1.78.8-1.78,3.05,0,1.48.46,2.9,1.7,2.9Z"/><path class="cls-1" d="m88.5,50.58c-.43.16-1.16.38-1.81.38-2.32,0-3.29-1.76-3.29-3.74,0-2.29,1.33-3.72,3.24-3.72.63,0,1.22.08,1.72.32v.92c-.56-.28-1.17-.45-1.71-.45-1.2,0-2.29.95-2.29,2.74,0,1.89.76,3.13,2.35,3.13.29,0,.67-.07.91-.2v-2.31h-1.23v-.8h2.11v3.72Z"/><path class="cls-1" d="m89.77,43.56h.92v7.32h-.92v-7.32Z"/><path class="cls-1" d="m94.81,43.56l2.39,7.32h-.96l-.59-1.91h-2.79l-.59,1.91h-.92l2.45-7.32h1.01Zm.6,4.61l-1.12-3.65h-.02l-1.15,3.65h2.3Z"/><path class="cls-1" d="m98.08,49.71h.96l-.69,2.43h-.8l.52-2.43Z"/><path class="cls-1" d="m102.6,43.56h1.88c.78,0,1.21.19,1.54.5.38.36.54.86.54,1.39,0,.78-.37,1.52-1.45,1.75v.02c.44.08.65.29.8.71l1.03,2.93h-1l-.84-2.47c-.21-.61-.47-.84-1.16-.84h-.42v3.31h-.92v-7.32Zm.92,3.25h.71c.99,0,1.36-.65,1.36-1.29,0-.82-.53-1.21-1.34-1.21h-.73v2.49Z"/><path class="cls-1" d="m107.71,43.56h3.41v.8h-2.48v2.33h2.37v.8h-2.37v2.6h2.62v.8h-3.54v-7.32Z"/><path class="cls-1" d="m115.29,44.62c-.35-.21-.8-.34-1.25-.34-.69,0-1.14.47-1.14,1.09,0,.47.19.76,1.24,1.37,1.13.65,1.51,1.29,1.51,2.13,0,1.16-.72,2.08-2.13,2.08-.59,0-1.14-.13-1.53-.31v-.95c.42.25.96.47,1.39.47.83,0,1.3-.56,1.3-1.15,0-.57-.15-.89-1.13-1.49-1.32-.8-1.61-1.25-1.61-2.19,0-1.21.92-1.83,2.03-1.83.48,0,1,.1,1.32.24v.89Z"/><path class="cls-1" d="m117.7,44.36h-1.68v-.8h4.28v.8h-1.68v6.52h-.92v-6.52Z"/><path class="cls-1" d="m123.27,43.56l2.39,7.32h-.96l-.59-1.91h-2.79l-.59,1.91h-.92l2.45-7.32h1.01Zm.6,4.61l-1.12-3.65h-.02l-1.15,3.65h2.3Z"/><path class="cls-1" d="m130.65,48.19c0,.72-.04,1.12-.29,1.64-.3.61-.94,1.13-2,1.13s-1.7-.52-2-1.13c-.25-.51-.29-.91-.29-1.64v-4.62h.92v4.76c0,1.14.5,1.88,1.37,1.88s1.37-.73,1.37-1.88v-4.76h.92v4.62Z"/><path class="cls-1" d="m131.95,43.56h1.88c.78,0,1.21.19,1.54.5.38.36.54.86.54,1.39,0,.78-.37,1.52-1.45,1.75v.02c.44.08.65.29.8.71l1.03,2.93h-1l-.84-2.47c-.21-.61-.47-.84-1.16-.84h-.42v3.31h-.92v-7.32Zm.92,3.25h.71c.99,0,1.36-.65,1.36-1.29,0-.82-.53-1.21-1.34-1.21h-.73v2.49Z"/><path class="cls-1" d="m139.43,43.49c1.62,0,2.66,1.39,2.66,3.66,0,2.53-1.02,3.81-2.75,3.81-1.62,0-2.66-1.39-2.66-3.66,0-2.53,1.02-3.8,2.75-3.8Zm-.08,6.71c.96,0,1.78-.8,1.78-3.05,0-1.48-.46-2.9-1.7-2.9-.96,0-1.78.8-1.78,3.05,0,1.48.46,2.9,1.7,2.9Z"/><path class="cls-1" d="m1.32,55.35h3.41v.8h-2.48v2.33h2.37v.8h-2.37v2.6h2.62v.8H1.32v-7.32Z"/><path class="cls-1" d="m7.45,55.35h1.01l1.7,5.97h.02l1.79-5.97h.92l-2.3,7.32h-.92l-2.22-7.32Z"/><path class="cls-1" d="m15.78,55.35l2.39,7.32h-.96l-.59-1.91h-2.79l-.59,1.91h-.92l2.45-7.32h1.01Zm.6,4.61l-1.12-3.65h-.02l-1.15,3.65h2.3Z"/><path class="cls-1" d="m18.85,55.35h.92v6.52h2.4v.8h-3.32v-7.32Z"/><path class="cls-1" d="m25.11,55.28c1.62,0,2.66,1.39,2.66,3.66,0,2.53-1.02,3.81-2.75,3.81-1.62,0-2.66-1.39-2.66-3.66,0-2.53,1.02-3.8,2.75-3.8Zm-.08,6.71c.96,0,1.78-.8,1.78-3.05,0-1.48-.46-2.9-1.7-2.9-.96,0-1.78.8-1.78,3.05,0,1.48.46,2.9,1.7,2.9Z"/><path class="cls-1" d="m28.79,55.35h1.88c.78,0,1.21.19,1.54.5.38.36.54.86.54,1.39,0,.78-.37,1.52-1.45,1.75v.02c.44.08.65.29.8.71l1.03,2.93h-1l-.84-2.47c-.21-.61-.47-.84-1.16-.84h-.42v3.31h-.92v-7.32Zm.92,3.25h.71c.99,0,1.36-.65,1.36-1.29,0-.82-.53-1.21-1.34-1.21h-.73v2.49Z"/><path class="cls-1" d="m33.91,55.35h.92v7.32h-.92v-7.32Z"/><path class="cls-1" d="m35.62,61.8l2.98-5.65h-2.88v-.8h3.98v.8l-3.07,5.72h3.13v.8h-4.14v-.87Z"/><path class="cls-1" d="m43.67,55.35l2.39,7.32h-.96l-.59-1.91h-2.79l-.59,1.91h-.92l2.45-7.32h1.01Zm.6,4.61l-1.12-3.65h-.02l-1.15,3.65h2.3Z"/><path class="cls-1" d="m50.78,62.52c-.44.14-.9.22-1.33.22-.09,0-.19,0-.27-.01l-.39.57c.09-.02.2-.03.3-.03.49,0,.89.27.89.75s-.43.91-1.25.91c-.37,0-.71-.1-.92-.19l.15-.37c.21.07.46.14.66.14.37,0,.61-.21.61-.44,0-.25-.15-.39-.46-.39-.18,0-.32.02-.45.07l-.16-.2.59-.88c-1.81-.34-2.59-1.92-2.59-3.68,0-2.29,1.33-3.72,3.24-3.72.52,0,1.05.09,1.38.26v.9c-.4-.25-.86-.37-1.37-.37-1.2,0-2.29.95-2.29,2.74,0,1.89.76,3.13,2.35,3.13.47,0,.93-.13,1.31-.35v.92Z"/><path class="cls-1" d="m54.76,55.35l2.39,7.32h-.96l-.59-1.91h-2.79l-.59,1.91h-.92l2.45-7.32h1.01Zm1-1.72c-.12.69-.39,1.12-.89,1.12-.17,0-.34-.03-.72-.22-.32-.16-.39-.18-.49-.18-.19,0-.38.12-.41.45h-.55c.07-.71.41-1.12,1-1.12.19,0,.38.05.8.26.21.1.29.14.37.14.19,0,.29-.16.36-.45h.54Zm-.4,6.33l-1.12-3.65h-.02l-1.15,3.65h2.3Z"/><path class="cls-1" d="m60.02,55.28c1.62,0,2.66,1.39,2.66,3.66,0,2.53-1.02,3.81-2.75,3.81-1.62,0-2.66-1.39-2.66-3.66,0-2.53,1.02-3.8,2.75-3.8Zm-.08,6.71c.96,0,1.78-.8,1.78-3.05,0-1.48-.46-2.9-1.7-2.9-.96,0-1.78.8-1.78,3.05,0,1.48.46,2.9,1.7,2.9Z"/><path class="cls-1" d="m65.88,55.35h1.59c.98,0,1.53.23,1.95.52.65.45,1.35,1.37,1.35,3.02,0,2.12-1.01,3.77-3.75,3.77h-1.14v-7.32Zm.92,6.52h.56c1.61,0,2.45-1.1,2.45-2.98,0-1.53-.65-2.75-2.45-2.75h-.56v5.72Z"/><path class="cls-1" d="m74.26,55.35l2.39,7.32h-.96l-.59-1.91h-2.79l-.59,1.91h-.92l2.45-7.32h1.01Zm.6,4.61l-1.12-3.65h-.02l-1.15,3.65h2.3Z"/><path class="cls-1" d="m80.47,56.41c-.35-.21-.8-.34-1.25-.34-.69,0-1.14.47-1.14,1.09,0,.47.19.76,1.24,1.37,1.13.65,1.51,1.29,1.51,2.13,0,1.16-.72,2.08-2.13,2.08-.59,0-1.14-.13-1.53-.31v-.95c.42.25.96.47,1.39.47.83,0,1.3-.56,1.3-1.15,0-.57-.15-.89-1.13-1.49-1.32-.8-1.61-1.25-1.61-2.19,0-1.21.92-1.83,2.03-1.83.48,0,1,.1,1.32.24v.89Z"/><path class="cls-1" d="m86.83,55.35l2.39,7.32h-.96l-.59-1.91h-2.79l-.59,1.91h-.92l2.45-7.32h1.01Zm.6,4.61l-1.12-3.65h-.02l-1.15,3.65h2.3Z"/><path class="cls-1" d="m89.89,55.35h1.88c.78,0,1.21.19,1.54.5.38.36.54.86.54,1.39,0,.78-.37,1.52-1.45,1.75v.02c.44.08.65.29.8.71l1.03,2.93h-1l-.84-2.47c-.21-.61-.47-.84-1.16-.84h-.42v3.31h-.92v-7.32Zm.92,3.25h.71c.99,0,1.36-.65,1.36-1.29,0-.82-.53-1.21-1.34-1.21h-.73v2.49Z"/><path class="cls-1" d="m96.08,56.15h-1.68v-.8h4.28v.8h-1.68v6.52h-.92v-6.52Z"/><path class="cls-1" d="m99.41,55.35h3.41v.8h-2.48v2.33h2.37v.8h-2.37v2.6h2.62v.8h-3.54v-7.32Z"/><path class="cls-1" d="m106.98,56.41c-.35-.21-.8-.34-1.25-.34-.69,0-1.14.47-1.14,1.09,0,.47.19.76,1.24,1.37,1.13.65,1.51,1.29,1.51,2.13,0,1.16-.72,2.08-2.13,2.08-.59,0-1.14-.13-1.53-.31v-.95c.42.25.96.47,1.39.47.83,0,1.3-.56,1.3-1.15,0-.57-.15-.89-1.13-1.49-1.32-.8-1.61-1.25-1.61-2.19,0-1.21.92-1.83,2.03-1.83.48,0,1,.1,1.32.24v.89Z"/></g></svg>